<svg width="30" height="30" viewBox="0 0 43 33" fill="none" xmlns="http://www.w3.org/2000/svg">
<path d="M36.4279 1.625H7.19712C4.22327 1.625 1.8125 3.97551 1.8125 6.875V26.375C1.8125 29.2745 4.22327 31.625 7.19712 31.625H36.4279C39.4017 31.625 41.8125 29.2745 41.8125 26.375V6.875C41.8125 3.97551 39.4017 1.625 36.4279 1.625Z" stroke="#36AC68" stroke-width="2" stroke-linecap="round" stroke-linejoin="round"/>
<path d="M1.8125 10.625H41.8125H1.8125ZM9.50481 20.75H14.1202V22.625H9.50481V20.75Z" stroke="#36AC68" stroke-width="2" stroke-linejoin="round"/>
<path d="M22.5188 23.9636C22.3673 23.9194 22.2359 23.8362 22.1429 23.7257C22.05 23.6151 22 23.4827 22 23.347C22 20.3675 22.7058 17.9848 24.0986 16.2643C25.7813 14.1857 28.4356 13.0664 32 12.9274V9.65208C32 9.52438 32.0443 9.3995 32.1273 9.29292C32.2102 9.18635 32.3283 9.10276 32.4668 9.05255C32.6052 9.00233 32.7581 8.98768 32.9063 9.01043C33.0545 9.03318 33.1916 9.09231 33.3005 9.1805L41.7621 16.0279C41.8373 16.0888 41.8971 16.162 41.938 16.2431C41.9789 16.3241 42 16.4114 42 16.4995C42 16.5877 41.9789 16.6749 41.938 16.756C41.8971 16.837 41.8373 16.9102 41.7621 16.9711L33.3005 23.8185C33.1916 23.9067 33.0545 23.9659 32.9063 23.9886C32.7581 24.0114 32.6052 23.9967 32.4668 23.9465C32.3283 23.8963 32.2102 23.8127 32.1273 23.7061C32.0443 23.5995 32 23.4747 32 23.347V20.0957C29.8366 20.1511 28.2019 20.4482 26.9005 21.0184C25.4942 21.6347 24.4745 22.5554 23.3755 23.7493C23.2769 23.8563 23.1413 23.9346 22.9878 23.9731C22.8342 24.0117 22.6702 24.0087 22.5188 23.9645V23.9636Z" fill="white"/>
</svg>
