<svg width="30" height="30" viewBox="0 0 43 33" fill="none" xmlns="http://www.w3.org/2000/svg">
<path d="M35.6154 1H6.38462C3.41077 1 1 3.35051 1 6.25V25.75C1 28.6495 3.41077 31 6.38462 31H35.6154C38.5892 31 41 28.6495 41 25.75V6.25C41 3.35051 38.5892 1 35.6154 1Z" stroke="#36AC68" stroke-width="2" stroke-linecap="round" stroke-linejoin="round"/>
<path d="M1 10H41H1ZM8.69231 20.125H13.3077V22H8.69231V20.125Z" stroke="#36AC68" stroke-width="2" stroke-linejoin="round"/>
<path d="M40.2307 8.00105C40.1138 8.0012 39.9984 8.02393 39.8934 8.06752C39.7884 8.1111 39.6965 8.17439 39.6247 8.25259C38.5271 9.44731 37.5085 10.3696 36.1029 10.9887C34.8021 11.56 33.1677 11.8594 31.0041 11.9178L30.9996 8.66586C30.999 8.53854 30.9544 8.41418 30.8714 8.30812C30.7884 8.20205 30.6706 8.11891 30.5325 8.06895C30.3944 8.01899 30.2421 8.0044 30.0943 8.02696C29.9465 8.04953 29.8097 8.10828 29.7008 8.19596L21.2475 15.0562C21.1724 15.1172 21.1126 15.1905 21.0718 15.2716C21.031 15.3527 21.0101 15.44 21.0102 15.5282C21.0103 15.6164 21.0315 15.7036 21.0725 15.7846C21.1135 15.8656 21.1735 15.9387 21.2488 15.9995L29.7207 22.8367C29.8298 22.9241 29.9668 22.9825 30.1146 23.0047C30.2625 23.0268 30.4148 23.0118 30.5528 22.9615C30.6907 22.9112 30.8083 22.8277 30.891 22.7214C30.9737 22.6151 31.018 22.4906 31.0183 22.3633L31.0138 19.0873C34.5785 18.9435 37.233 17.8188 38.9117 15.7391C40.3023 14.0164 41.0049 11.6323 41.0009 8.65226C41.0006 8.47927 40.9194 8.31348 40.7749 8.19135C40.6305 8.06923 40.4347 8.00077 40.2307 8.00105Z" fill="white"/>
</svg>
