<svg width="26" height="26" viewBox="0 0 26 26" fill="none" xmlns="http://www.w3.org/2000/svg">
<path d="M10.0189 1.01909H2.05017C1.40296 1.01909 0.878296 1.54376 0.878296 2.19097V10.1597C0.878296 10.8069 1.40296 11.3316 2.05017 11.3316H10.0189C10.6661 11.3316 11.1908 10.8069 11.1908 10.1597V2.19097C11.1908 1.54376 10.6661 1.01909 10.0189 1.01909Z" fill="white" stroke="#262626" stroke-opacity="0.03" stroke-width="0.5" stroke-linecap="round" stroke-linejoin="round"/>
<path d="M24.0814 1.01909H16.1127C15.4655 1.01909 14.9408 1.54376 14.9408 2.19097V10.1597C14.9408 10.8069 15.4655 11.3316 16.1127 11.3316H24.0814C24.7286 11.3316 25.2533 10.8069 25.2533 10.1597V2.19097C25.2533 1.54376 24.7286 1.01909 24.0814 1.01909Z" fill="#36AC68" stroke="#262626" stroke-opacity="0.03" stroke-width="0.5" stroke-linecap="round" stroke-linejoin="round"/>
<path d="M10.0189 15.0816H2.05017C1.40296 15.0816 0.878296 15.6063 0.878296 16.2535V24.2222C0.878296 24.8694 1.40296 25.3941 2.05017 25.3941H10.0189C10.6661 25.3941 11.1908 24.8694 11.1908 24.2222V16.2535C11.1908 15.6063 10.6661 15.0816 10.0189 15.0816Z" fill="white" stroke="#262626" stroke-opacity="0.03" stroke-width="0.5" stroke-linecap="round" stroke-linejoin="round"/>
<path d="M24.0814 15.0816H16.1127C15.4655 15.0816 14.9408 15.6063 14.9408 16.2535V24.2222C14.9408 24.8694 15.4655 25.3941 16.1127 25.3941H24.0814C24.7286 25.3941 25.2533 24.8694 25.2533 24.2222V16.2535C25.2533 15.6063 24.7286 15.0816 24.0814 15.0816Z" fill="white" stroke="#262626" stroke-opacity="0.03" stroke-width="0.5" stroke-linecap="round" stroke-linejoin="round"/>
</svg>
