<svg width="30" height="30" viewBox="0 0 30 30" fill="none" xmlns="http://www.w3.org/2000/svg">
<path d="M15.24 14.14H22.26C22.3 14.3 22.3333 14.4933 22.36 14.72C22.3867 14.9467 22.4 15.1733 22.4 15.4C22.4 16.32 22.26 17.1867 21.98 18C21.7 18.8133 21.26 19.54 20.66 20.18C20.02 20.86 19.2533 21.3867 18.36 21.76C17.4667 22.1333 16.4467 22.32 15.3 22.32C14.26 22.32 13.28 22.1333 12.36 21.76C11.44 21.3867 10.64 20.8667 9.96 20.2C9.28 19.5333 8.74 18.7467 8.34 17.84C7.94 16.92 7.74 15.92 7.74 14.84C7.74 13.76 7.94 12.7667 8.34 11.86C8.74 10.94 9.28 10.1467 9.96 9.48C10.64 8.81333 11.44 8.29333 12.36 7.92C13.28 7.54667 14.26 7.36 15.3 7.36C16.46 7.36 17.4933 7.56 18.4 7.96C19.32 8.36 20.1067 8.91333 20.76 9.62L18.9 11.44C18.4333 10.9467 17.9133 10.5733 17.34 10.32C16.7667 10.0533 16.08 9.92 15.28 9.92C14.6267 9.92 14.0067 10.04 13.42 10.28C12.8333 10.5067 12.32 10.8333 11.88 11.26C11.44 11.6867 11.0867 12.2067 10.82 12.82C10.5667 13.42 10.44 14.0933 10.44 14.84C10.44 15.5867 10.5667 16.2667 10.82 16.88C11.0867 17.48 11.44 17.9933 11.88 18.42C12.3333 18.8467 12.8533 19.18 13.44 19.42C14.0267 19.6467 14.6533 19.76 15.32 19.76C16.08 19.76 16.72 19.6533 17.24 19.44C17.7733 19.2133 18.2267 18.9267 18.6 18.58C18.8667 18.34 19.0933 18.04 19.28 17.68C19.48 17.3067 19.6333 16.8933 19.74 16.44H15.24V14.14Z" fill="white"/>
<circle cx="15" cy="15" r="14" stroke="white" stroke-width="2"/>
</svg>
